<svg xmlns="http://www.w3.org/2000/svg" version="1.1" xmlns:xlink="http://www.w3.org/1999/xlink" xmlns:svgjs="http://svgjs.dev/svgjs" width="2000" height="1500" viewBox="0 0 2000 1500"><rect width="2000" height="1500" fill="#ffffff"></rect><g transform="matrix(0.43159257660768235,0,0,0.43159257660768235,567.6127378936447,248.38709677419348)"><svg viewBox="0 0 214 248" data-background-color="#ffffff" preserveAspectRatio="xMidYMid meet" height="2317" width="2000" xmlns="http://www.w3.org/2000/svg" xmlns:xlink="http://www.w3.org/1999/xlink"><g id="tight-bounds" transform="matrix(1,0,0,1,0.19701763414548168,0.4000000000000057)"><svg viewBox="0 0 213.60596473170907 247.2" height="247.2" width="213.60596473170907"><g><svg viewBox="0 0 397.4975999999999 460.01246661542035" height="247.2" width="213.60596473170907"><g><rect width="397.4975999999999" height="14.08957428435499" x="0" y="252.80262926833643" fill="#50a060" opacity="1" stroke-width="0" stroke="transparent" fill-opacity="1" class="rect-yte-0" data-fill-palette-color="secondary" rx="1%" id="yte-0" data-palette-color="#50a060"></rect></g><g transform="matrix(1,0,0,1,0.9887999999999693,303.7759058677568)"><svg viewBox="0 0 395.52 156.23656074766353" height="156.23656074766353" width="395.52"><g id="textblocktransform"><svg viewBox="0 0 395.52 156.23656074766353" height="156.23656074766353" width="395.52" id="textblock"><g><svg viewBox="0 0 395.52 156.23656074766353" height="156.23656074766353" width="395.52"><g transform="matrix(1,0,0,1,0,0)"><svg width="395.52" viewBox="4.45 -31.05 80.25 31.7" height="156.23656074766353" data-palette-color="#50a060"><path d="M4.45-1.6L4.45-18.1 8.55-18.1 8.55-0.1Q8.25 0 7.75 0.13 7.25 0.25 6.65 0.25L6.65 0.25Q5.55 0.25 5-0.2 4.45-0.65 4.45-1.6L4.45-1.6ZM8.55-28.8L8.55-14.75 4.45-14.75 4.45-30.3Q4.7-30.4 5.23-30.53 5.75-30.65 6.35-30.65L6.35-30.65Q7.45-30.65 8-30.23 8.55-29.8 8.55-28.8L8.55-28.8ZM24.15-1.6L24.15-18.1 28.25-18.1 28.25-0.1Q27.95 0 27.45 0.13 26.95 0.25 26.35 0.25L26.35 0.25Q25.25 0.25 24.7-0.2 24.15-0.65 24.15-1.6L24.15-1.6ZM28.25-28.8L28.25-14.75 24.15-14.75 24.15-30.3Q24.4-30.4 24.93-30.53 25.45-30.65 26.05-30.65L26.05-30.65Q27.15-30.65 27.7-30.23 28.25-29.8 28.25-28.8L28.25-28.8ZM26.3-17.1L26.3-13.7 6.9-13.7 6.9-17.1 26.3-17.1ZM37.15-2.2L37.15-17.75 41.25-17.75 41.25-0.4 39.35 0Q38.4 0 37.77-0.63 37.15-1.25 37.15-2.2L37.15-2.2ZM54.5 0L39.35 0 39.35-3.5 55.6-3.5Q55.85-3.3 56-2.85 56.15-2.4 56.15-1.85L56.15-1.85Q56.15-1 55.7-0.5 55.25 0 54.5 0L54.5 0ZM41.25-28.8L41.25-14.75 37.15-14.75 37.15-30.3Q37.4-30.4 37.92-30.53 38.45-30.65 39.05-30.65L39.05-30.65Q40.15-30.65 40.7-30.23 41.25-29.8 41.25-28.8L41.25-28.8ZM84.4-27.05L84.4-27.05Q84.4-26.4 83.97-25.88 83.55-25.35 83-25.1L83-25.1Q81.75-26 79.97-26.8 78.2-27.6 75.4-27.6L75.4-27.6Q72.34-27.6 69.92-26.2 67.5-24.8 66.07-22.03 64.65-19.25 64.65-15.15L64.65-15.15Q64.65-9 67.67-5.9 70.7-2.8 75.55-2.8L75.55-2.8Q78.15-2.8 80.09-3.55 82.05-4.3 83.3-5.25L83.3-5.25Q83.8-5.05 84.25-4.53 84.7-4 84.7-3.3L84.7-3.3Q84.7-2.8 84.42-2.33 84.15-1.85 83.5-1.4L83.5-1.4Q82.34-0.6 80.34 0.03 78.34 0.65 75.25 0.65L75.25 0.65Q71.09 0.65 67.72-1.13 64.34-2.9 62.4-6.4 60.45-9.9 60.45-15.15L60.45-15.15Q60.45-20.4 62.47-23.95 64.5-27.5 67.82-29.28 71.15-31.05 75.09-31.05L75.09-31.05Q77.84-31.05 79.95-30.45 82.05-29.85 83.22-28.93 84.4-28 84.4-27.05Z" opacity="1" transform="matrix(1,0,0,1,0,0)" fill="#50a060" class="wordmark-text-0" data-fill-palette-color="primary" id="text-0"></path></svg></g></svg></g></svg></g></svg></g><g transform="matrix(1,0,0,1,83.54736927466757,0)"><svg viewBox="0 0 230.40286145066477 215.918926953271" height="215.918926953271" width="230.40286145066477"><g><svg xmlns="http://www.w3.org/2000/svg" xmlns:xlink="http://www.w3.org/1999/xlink" version="1.1" x="8" y="0" viewBox="5.302304759674535 5.041940591414316 89.32642274534739 89.95805940858568" style="enable-background:new 0 0 100 100;" xml:space="preserve" height="215.918926953271" width="214.40286145066477" class="icon-icon-0" data-fill-palette-color="accent" id="icon-0"><path d="M84.2 51.5L50 95 15.8 51.5H33.6C34.6 51.5 35.7 50.8 36.1 50L41.5 39.6C41.9 38.9 42.9 38.9 43.3 39.6L56.7 65.4C57.1 66.1 57.7 66.5 58.4 66.5S59.7 66.1 60.1 65.4L66.9 52.2C67.1 51.8 67.5 51.6 68 51.6z" fill="#50a060" data-fill-palette-color="accent"></path><path d="M32.8 48.5C33.2 48.5 33.7 48.3 33.9 47.9L40.7 34.7C41.1 34 41.7 33.6 42.4 33.6S43.7 34 44.1 34.7L57.5 60.5C57.9 61.2 58.9 61.2 59.3 60.5L64.7 50.1C65.1 49.3 66.3 48.6 67.2 48.6H86.6L89 45.5C93 40.7 95.2 34.4 94.5 27.5 93.4 15.5 83.6 5.9 71.6 5.1 62.8 4.5 54.8 8.6 50 15.1 45.2 8.6 37.2 4.5 28.4 5.1 16.4 5.9 6.5 15.5 5.4 27.5 4.8 34.3 7 40.6 11 45.4L13.4 48.5z" fill="#50a060" data-fill-palette-color="accent"></path></svg></g></svg></g><g></g></svg></g><defs></defs></svg><rect width="213.60596473170907" height="247.2" fill="none" stroke="none" visibility="hidden"></rect></g></svg></g></svg>